<mxfile host="app.diagrams.net" modified="2024-04-13T00:54:10.094Z" agent="Mozilla/5.0 (Windows NT 10.0; Win64; x64) AppleWebKit/537.36 (KHTML, like Gecko) Chrome/123.0.0.0 Safari/537.36" etag="-zs9TE8wijVPz4LniynG" version="24.2.5" type="device">
  <diagram name="Page-1" id="scITmVm5jE6blvcf7IN5">
    <mxGraphModel dx="1114" dy="566" grid="1" gridSize="10" guides="1" tooltips="1" connect="1" arrows="1" fold="1" page="1" pageScale="1" pageWidth="850" pageHeight="1100" math="0" shadow="0">
      <root>
        <mxCell id="0" />
        <mxCell id="1" parent="0" />
        <mxCell id="DIKWqXxbo6iluxy1uibf-1" value="" style="rounded=0;whiteSpace=wrap;html=1;movable=0;resizable=0;rotatable=0;deletable=0;editable=0;locked=1;connectable=0;" vertex="1" parent="1">
          <mxGeometry x="10" y="40" width="780" height="440" as="geometry" />
        </mxCell>
        <mxCell id="DIKWqXxbo6iluxy1uibf-2" value="" style="rounded=0;whiteSpace=wrap;html=1;" vertex="1" parent="1">
          <mxGeometry x="10" y="40" width="780" height="50" as="geometry" />
        </mxCell>
        <mxCell id="DIKWqXxbo6iluxy1uibf-3" value="Miguel Paganini" style="rounded=0;whiteSpace=wrap;html=1;" vertex="1" parent="1">
          <mxGeometry x="10" y="40" width="140" height="50" as="geometry" />
        </mxCell>
        <mxCell id="DIKWqXxbo6iluxy1uibf-12" value="contato" style="rounded=0;whiteSpace=wrap;html=1;" vertex="1" parent="1">
          <mxGeometry x="700" y="40" width="90" height="50" as="geometry" />
        </mxCell>
        <mxCell id="DIKWqXxbo6iluxy1uibf-13" value="projects" style="rounded=0;whiteSpace=wrap;html=1;" vertex="1" parent="1">
          <mxGeometry x="600" y="40" width="90" height="50" as="geometry" />
        </mxCell>
        <mxCell id="DIKWqXxbo6iluxy1uibf-14" value="conhecimentos" style="rounded=0;whiteSpace=wrap;html=1;" vertex="1" parent="1">
          <mxGeometry x="500" y="40" width="90" height="50" as="geometry" />
        </mxCell>
        <mxCell id="DIKWqXxbo6iluxy1uibf-15" value="about" style="rounded=0;whiteSpace=wrap;html=1;" vertex="1" parent="1">
          <mxGeometry x="400" y="40" width="90" height="50" as="geometry" />
        </mxCell>
        <mxCell id="DIKWqXxbo6iluxy1uibf-24" value="" style="group" vertex="1" connectable="0" parent="1">
          <mxGeometry x="130" y="180" width="560" height="280" as="geometry" />
        </mxCell>
        <mxCell id="DIKWqXxbo6iluxy1uibf-16" value="project 1" style="rounded=0;whiteSpace=wrap;html=1;" vertex="1" parent="DIKWqXxbo6iluxy1uibf-24">
          <mxGeometry width="175" height="131.25" as="geometry" />
        </mxCell>
        <mxCell id="DIKWqXxbo6iluxy1uibf-19" value="project 4" style="rounded=0;whiteSpace=wrap;html=1;" vertex="1" parent="DIKWqXxbo6iluxy1uibf-24">
          <mxGeometry y="148.75" width="175" height="131.25" as="geometry" />
        </mxCell>
        <mxCell id="DIKWqXxbo6iluxy1uibf-20" value="project 3" style="rounded=0;whiteSpace=wrap;html=1;" vertex="1" parent="DIKWqXxbo6iluxy1uibf-24">
          <mxGeometry x="385" width="175" height="131.25" as="geometry" />
        </mxCell>
        <mxCell id="DIKWqXxbo6iluxy1uibf-21" value="project 2" style="rounded=0;whiteSpace=wrap;html=1;" vertex="1" parent="DIKWqXxbo6iluxy1uibf-24">
          <mxGeometry x="195" width="175" height="131.25" as="geometry" />
        </mxCell>
        <mxCell id="DIKWqXxbo6iluxy1uibf-22" value="project 6" style="rounded=0;whiteSpace=wrap;html=1;" vertex="1" parent="DIKWqXxbo6iluxy1uibf-24">
          <mxGeometry x="385" y="148.75" width="175" height="131.25" as="geometry" />
        </mxCell>
        <mxCell id="DIKWqXxbo6iluxy1uibf-23" value="project 5" style="rounded=0;whiteSpace=wrap;html=1;" vertex="1" parent="DIKWqXxbo6iluxy1uibf-24">
          <mxGeometry x="195" y="148.75" width="175" height="131.25" as="geometry" />
        </mxCell>
        <mxCell id="DIKWqXxbo6iluxy1uibf-25" value="projetos" style="rounded=0;whiteSpace=wrap;html=1;" vertex="1" parent="1">
          <mxGeometry x="320" y="100" width="180" height="60" as="geometry" />
        </mxCell>
      </root>
    </mxGraphModel>
  </diagram>
</mxfile>
